<svg xmlns="http://www.w3.org/2000/svg" width="52" height="43" viewBox="0 0 52 43"><path d="M12.81 24.84V26H.12v-1.15h4.83v-4.96h1.44v4.96h6.42zm-3.03-8.37H1.52V15.3h9.69c.05 2.95-.13 5.77-.56 7.75l-1.35-.17c.34-1.48.5-3.74.49-5.06v-1.35zm4.26 5.77l-.81-1.13c2.58-.94 4.49-2.92 4.65-5.03h-3.94v-1.15h5.44c.02 3.52-2.16 5.97-5.34 7.31zm11.04.63v5.09h-1.43v-3.92h-8.04v-1.17h9.47zm-3.03-.88H20.7v-7.84h1.35v3.25h1.68v-3.5h1.35v8.24h-1.35v-3.58h-1.68v3.43zm12.84 1.51l-.8 1.14c-1.34-.76-3.02-2.63-3.44-4.15-.43 1.65-1.94 3.58-3.51 4.49l-.85-1.1c2.25-1.33 3.59-3.6 3.59-6.41v-.95h-3V15.3h7.49v1.21h-2.99v.9c0 2.8 1.47 5.01 3.51 6.09zm2.95-9.6v14.04h-1.45V13.9h1.45zm5.69 7.65c-1.39.06-2.79.09-4.03.1l-.19-1.16c3.12.01 6.67-.09 9.16-.39l.12 1.08c-1.05.13-2.3.23-3.62.31v2.56h-1.43v-2.5zm-3.1-4.49c0-1.53 1.44-2.58 3.49-2.58 2.07 0 3.49 1.05 3.49 2.58 0 1.52-1.43 2.57-3.49 2.57-2.05-.01-3.49-1.05-3.49-2.57zm10.93 9.34v1.15H41.22v-3.99h1.44v2.85h8.7zm-9.48-9.34c0 .87.85 1.47 2.05 1.47 1.2 0 2.05-.6 2.05-1.47s-.85-1.49-2.05-1.49c-1.2-.01-2.05.62-2.05 1.49zm4.99 5.22h2.76V13.9h1.43v10.79h-1.43V23.3h-2.76v-1.02z" fill="#fff"/><path fill="none" d="M0 0h52v43H0z"/></svg>